<?xml version="1.0" encoding="UTF-8" standalone="no"?><!-- Generator: Gravit.io --><svg xmlns="http://www.w3.org/2000/svg" xmlns:xlink="http://www.w3.org/1999/xlink" style="isolation:isolate" viewBox="642.817 128.128 527.187 513.604" width="527.187pt" height="513.604pt"><g><path d=" M 699.537 227.2 C 672.296 216.48 642.139 272.965 663.608 290.517 C 685.077 308.069 708.755 295.288 716.912 282.86 C 725.07 270.432 726.778 237.92 699.537 227.2 Z " fill="rgb(162,216,233)" vector-effect="non-scaling-stroke" stroke-width="9" stroke="rgb(47,24,29)" stroke-linejoin="miter" stroke-linecap="square" stroke-miterlimit="3"/><path d=" M 763.412 155.858 C 742.831 135.04 692.411 174.508 704.95 199.242 C 717.489 223.976 744.313 221.86 756.799 213.792 C 769.285 205.723 783.993 176.677 763.412 155.858 Z " fill="rgb(162,216,233)" vector-effect="non-scaling-stroke" stroke-width="9" stroke="rgb(47,24,29)" stroke-linejoin="miter" stroke-linecap="square" stroke-miterlimit="3"/><path d=" M 880.477 161.455 C 875.275 132.646 811.372 136.688 807.727 164.178 C 804.083 191.668 827.403 205.091 842.264 205.497 C 857.124 205.903 885.68 190.263 880.477 161.455 Z " fill="rgb(162,216,233)" vector-effect="non-scaling-stroke" stroke-width="9" stroke="rgb(47,24,29)" stroke-linejoin="miter" stroke-linecap="square" stroke-miterlimit="3"/><mask id="_mask_rRcGuZTBO2a44LkV9djLy8p9OCVxsGFR"><path d=" M 850 340 Q 794 380 780 440 Q 736 393 710 360 C 684 327 685 248 750 200 C 815 152 888 178 910 210 Q 932 242 960 300 Q 906 300 850 340 Z " fill="white" stroke="none"/></mask><path d=" M 850 340 Q 794 380 780 440 Q 736 393 710 360 C 684 327 685 248 750 200 C 815 152 888 178 910 210 Q 932 242 960 300 Q 906 300 850 340 Z " fill="rgb(162,216,233)"/><path d=" M 850 340 Q 794 380 780 440 Q 736 393 710 360 C 684 327 685 248 750 200 C 815 152 888 178 910 210 Q 932 242 960 300 Q 906 300 850 340 Z " fill="rgb(162,216,233)" mask="url(#_mask_rRcGuZTBO2a44LkV9djLy8p9OCVxsGFR)" vector-effect="non-scaling-stroke" stroke-width="18" stroke="rgb(47,24,29)" stroke-linejoin="miter" stroke-linecap="square" stroke-miterlimit="3"/><mask id="_mask_v6qAtNtHTp7pvrbr50GTAKqYk2VtzJSz"><path d=" M 896.636 411.109 Q 845.542 450.464 832.768 509.497 Q 761.136 424.773 730 380 C 698.864 335.227 726.667 263.03 780 230 C 833.333 196.97 909.927 218.516 930 250 Q 950.073 281.484 997 371.754 Q 947.73 371.754 896.636 411.109 Z " fill="white" stroke="none"/></mask><path d=" M 896.636 411.109 Q 845.542 450.464 832.768 509.497 Q 761.136 424.773 730 380 C 698.864 335.227 726.667 263.03 780 230 C 833.333 196.97 909.927 218.516 930 250 Q 950.073 281.484 997 371.754 Q 947.73 371.754 896.636 411.109 Z " fill="rgb(237,104,73)"/><path d=" M 896.636 411.109 Q 845.542 450.464 832.768 509.497 Q 761.136 424.773 730 380 C 698.864 335.227 726.667 263.03 780 230 C 833.333 196.97 909.927 218.516 930 250 Q 950.073 281.484 997 371.754 Q 947.73 371.754 896.636 411.109 Z " fill="rgb(237,104,73)" mask="url(#_mask_v6qAtNtHTp7pvrbr50GTAKqYk2VtzJSz)" vector-effect="non-scaling-stroke" stroke-width="18" stroke="rgb(47,24,29)" stroke-linejoin="miter" stroke-linecap="square" stroke-miterlimit="3"/><mask id="_mask_1wOI4EYT2XaRicn49TMgtkOigqb5wefz"><path d=" M 920 370 C 914.997 343.749 941.246 308.436 960 300 C 986.868 286.028 1114.683 296.249 1170 360 C 1136.246 357.186 1018.121 346.874 920 370 Z " fill="white" stroke="none"/></mask><path d=" M 920 370 C 914.997 343.749 941.246 308.436 960 300 C 986.868 286.028 1114.683 296.249 1170 360 C 1136.246 357.186 1018.121 346.874 920 370 Z " fill="rgb(237,104,73)"/><path d=" M 920 370 C 914.997 343.749 941.246 308.436 960 300 C 986.868 286.028 1114.683 296.249 1170 360 C 1136.246 357.186 1018.121 346.874 920 370 Z " fill="rgb(237,104,73)" mask="url(#_mask_1wOI4EYT2XaRicn49TMgtkOigqb5wefz)" vector-effect="non-scaling-stroke" stroke-width="18" stroke="rgb(47,24,29)" stroke-linejoin="miter" stroke-linecap="square" stroke-miterlimit="3"/><mask id="_mask_YjpPiF79lf7yPMoQYJKcOdHaJk3uwoiN"><path d=" M 918.272 368.305 C 995.621 316.874 1170.933 329.999 1170 360 C 1169.067 390.001 1041.559 376.874 990 460 L 918.272 368.305 Z " fill="white" stroke="none"/></mask><path d=" M 918.272 368.305 C 995.621 316.874 1170.933 329.999 1170 360 C 1169.067 390.001 1041.559 376.874 990 460 L 918.272 368.305 Z " fill="rgb(237,104,73)"/><path d=" M 918.272 368.305 C 995.621 316.874 1170.933 329.999 1170 360 C 1169.067 390.001 1041.559 376.874 990 460 L 918.272 368.305 Z " fill="rgb(237,104,73)" mask="url(#_mask_YjpPiF79lf7yPMoQYJKcOdHaJk3uwoiN)" vector-effect="non-scaling-stroke" stroke-width="18" stroke="rgb(47,24,29)" stroke-linejoin="miter" stroke-linecap="square" stroke-miterlimit="3"/><mask id="_mask_6feLcahaZ8iNQO1j90STRN77vyYnoSFL"><path d=" M 770 430 C 791.872 412.186 832.504 401.787 860 410 C 839.684 439.998 750.935 559.685 740 640 C 700.31 577.967 735.622 451.561 770 430 Z " fill="white" stroke="none"/></mask><path d=" M 770 430 C 791.872 412.186 832.504 401.787 860 410 C 839.684 439.998 750.935 559.685 740 640 C 700.31 577.967 735.622 451.561 770 430 Z " fill="rgb(237,104,73)"/><path d=" M 770 430 C 791.872 412.186 832.504 401.787 860 410 C 839.684 439.998 750.935 559.685 740 640 C 700.31 577.967 735.622 451.561 770 430 Z " fill="rgb(237,104,73)" mask="url(#_mask_6feLcahaZ8iNQO1j90STRN77vyYnoSFL)" vector-effect="non-scaling-stroke" stroke-width="18" stroke="rgb(47,24,29)" stroke-linejoin="miter" stroke-linecap="square" stroke-miterlimit="3"/><mask id="_mask_Bsa7SHyQTVemnQ3jgyAPL7F9UaPBX5EP"><path d=" M 918.272 520.912 C 852.184 532.498 756.417 657.825 740 640 C 723.583 622.175 738.747 474.373 845.649 425.382 L 918.272 520.912 Z " fill="white" stroke="none"/></mask><path d=" M 918.272 520.912 C 852.184 532.498 756.417 657.825 740 640 C 723.583 622.175 738.747 474.373 845.649 425.382 L 918.272 520.912 Z " fill="rgb(237,104,73)"/><path d=" M 918.272 520.912 C 852.184 532.498 756.417 657.825 740 640 C 723.583 622.175 738.747 474.373 845.649 425.382 L 918.272 520.912 Z " fill="rgb(237,104,73)" mask="url(#_mask_Bsa7SHyQTVemnQ3jgyAPL7F9UaPBX5EP)" vector-effect="non-scaling-stroke" stroke-width="18" stroke="rgb(47,24,29)" stroke-linejoin="miter" stroke-linecap="square" stroke-miterlimit="3"/><mask id="_mask_5bWz2KjCblrTmleNL6405piPMmDA44e1"><path d=" M 833.946 511.526 C 809.856 481.321 828.084 426.664 874.625 389.546 C 921.166 352.427 978.508 346.814 1002.598 377.019 C 1026.687 407.223 1008.459 461.88 961.918 498.998 C 915.377 536.117 858.035 541.73 833.946 511.526 Z " fill="white" stroke="none"/></mask><path d=" M 833.946 511.526 C 809.856 481.321 828.084 426.664 874.625 389.546 C 921.166 352.427 978.508 346.814 1002.598 377.019 C 1026.687 407.223 1008.459 461.88 961.918 498.998 C 915.377 536.117 858.035 541.73 833.946 511.526 Z " fill="rgb(237,104,73)"/><path d=" M 833.946 511.526 C 809.856 481.321 828.084 426.664 874.625 389.546 C 921.166 352.427 978.508 346.814 1002.598 377.019 C 1026.687 407.223 1008.459 461.88 961.918 498.998 C 915.377 536.117 858.035 541.73 833.946 511.526 Z " fill="rgb(237,104,73)" mask="url(#_mask_5bWz2KjCblrTmleNL6405piPMmDA44e1)" vector-effect="non-scaling-stroke" stroke-width="18" stroke="rgb(47,24,29)" stroke-linejoin="miter" stroke-linecap="square" stroke-miterlimit="3"/><path d=" M 849.136 499.411 C 831.148 476.856 847.522 433.837 885.679 403.406 C 923.836 372.974 969.419 366.579 987.407 389.133 C 1005.396 411.688 989.021 454.707 950.864 485.139 C 912.707 515.57 867.124 521.966 849.136 499.411 Z " fill="rgb(47,24,29)"/><rect x="788.508" y="329.412" width="30" height="30" transform="matrix(1,0,0,1,0,0)" fill="rgb(235,235,235)"/><path d=" M 818.508 269.412 L 848.508 269.412 L 848.508 299.412 L 818.508 299.412 L 818.508 269.412 L 818.508 269.412 Z  M 848.508 269.412 L 878.508 269.412 L 878.508 299.412 L 848.508 299.412 L 848.508 269.412 L 848.508 269.412 Z  M 848.508 299.412 L 878.508 299.412 L 878.508 329.412 L 848.508 329.412 L 848.508 299.412 Z " fill-rule="evenodd" fill="rgb(235,235,235)"/><path d=" M 1020 570 Q 987.567 400.155 980 390 C 972.433 379.845 946.255 373.222 900 400 C 853.745 426.778 834.32 480.246 860 500 Q 885.68 519.754 1020 570 Z " fill="rgb(162,216,233)" vector-effect="non-scaling-stroke" stroke-width="9" stroke="rgb(47,24,29)" stroke-linejoin="miter" stroke-linecap="round" stroke-miterlimit="3"/><path d=" M 922.613 415.909 C 853.459 419.74 851.213 509.968 897.177 520.566 C 891.94 498.081 873.546 447.172 922.613 415.909 Z " fill="rgb(162,216,233)" vector-effect="non-scaling-stroke" stroke-width="9" stroke="rgb(47,24,29)" stroke-linejoin="round" stroke-linecap="round" stroke-miterlimit="3"/><path d=" M 910.744 503.883 C 897.198 435.96 984.01 411.271 1005.742 453.136 C 982.662 453.676 928.774 448.566 910.744 503.883 Z " fill="rgb(162,216,233)" vector-effect="non-scaling-stroke" stroke-width="9" stroke="rgb(47,24,29)" stroke-linejoin="round" stroke-linecap="round" stroke-miterlimit="3"/><path d=" M 949.279 562.775 C 901.338 537.38 925.877 476.945 961.549 485.128 C 951.322 498.273 923.531 525.872 949.279 562.775 Z " fill="rgb(162,216,233)" vector-effect="non-scaling-stroke" stroke-width="9" stroke="rgb(47,24,29)" stroke-linejoin="round" stroke-linecap="round" stroke-miterlimit="3"/><path d=" M 957.53 537.255 C 971.247 489.878 1023.767 497.83 1022.246 530.704 C 1010.122 524.717 983.76 506.646 957.53 537.255 Z " fill="rgb(162,216,233)" vector-effect="non-scaling-stroke" stroke-width="9" stroke="rgb(47,24,29)" stroke-linejoin="round" stroke-linecap="round" stroke-miterlimit="3"/><mask id="_mask_AGidxvGAIbzeX63eGTCJGLsTW7GlR19Y"><circle vector-effect="non-scaling-stroke" cx="788.5080272405017" cy="591.3875159662623" r="28.612484033737587" fill="white" stroke="none"/></mask><circle vector-effect="non-scaling-stroke" cx="788.5080272405017" cy="591.3875159662623" r="28.612484033737587" fill="rgb(162,216,233)"/><circle vector-effect="non-scaling-stroke" cx="788.5080272405017" cy="591.3875159662623" r="28.612484033737587" fill="rgb(162,216,233)" mask="url(#_mask_AGidxvGAIbzeX63eGTCJGLsTW7GlR19Y)" stroke-width="18" stroke="rgb(47,24,29)" stroke-linejoin="miter" stroke-linecap="square" stroke-miterlimit="3"/><mask id="_mask_qqZP8VNJcW8TlADUN1raU9JCopUDIUVv"><circle vector-effect="non-scaling-stroke" cx="1101.3875159662625" cy="381.1208688667676" r="28.612484033737474" fill="white" stroke="none"/></mask><circle vector-effect="non-scaling-stroke" cx="1101.3875159662625" cy="381.1208688667676" r="28.612484033737474" fill="rgb(162,216,233)"/><circle vector-effect="non-scaling-stroke" cx="1101.3875159662625" cy="381.1208688667676" r="28.612484033737474" fill="rgb(162,216,233)" mask="url(#_mask_qqZP8VNJcW8TlADUN1raU9JCopUDIUVv)" stroke-width="18" stroke="rgb(47,24,29)" stroke-linejoin="miter" stroke-linecap="square" stroke-miterlimit="3"/></g></svg>